<mxfile host="app.diagrams.net" modified="2021-08-23T11:35:15.762Z" agent="5.0 (Macintosh; Intel Mac OS X 10_15_5) AppleWebKit/537.36 (KHTML, like Gecko) Chrome/92.0.4515.159 Safari/537.36" etag="0PRgueSBjBZms1WUzZB_" version="14.9.8" type="github" pages="2">
  <diagram id="XZlHwOy71ScK61gIgWLW" name="mobile">
    <mxGraphModel dx="981" dy="678" grid="1" gridSize="10" guides="1" tooltips="1" connect="1" arrows="1" fold="1" page="1" pageScale="1" pageWidth="1100" pageHeight="850" math="0" shadow="0">
      <root>
        <mxCell id="0" />
        <mxCell id="1" parent="0" />
        <mxCell id="jWMS9U_gEdIFRNJ8mvFn-2" value="" style="rounded=0;whiteSpace=wrap;html=1;" parent="1" vertex="1">
          <mxGeometry x="200" y="40" width="480" height="960" as="geometry" />
        </mxCell>
      </root>
    </mxGraphModel>
  </diagram>
  <diagram id="zcedqZm7HDz3CSFqVHlO" name="desktop">
    <mxGraphModel dx="981" dy="1528" grid="1" gridSize="10" guides="1" tooltips="1" connect="1" arrows="1" fold="1" page="1" pageScale="1" pageWidth="1100" pageHeight="850" math="0" shadow="0">
      <root>
        <mxCell id="jOUf7VoYPG0KSgHRsraD-0" />
        <mxCell id="jOUf7VoYPG0KSgHRsraD-1" parent="jOUf7VoYPG0KSgHRsraD-0" />
        <mxCell id="jOUf7VoYPG0KSgHRsraD-2" value="" style="rounded=0;whiteSpace=wrap;html=1;sketch=0;" vertex="1" parent="jOUf7VoYPG0KSgHRsraD-1">
          <mxGeometry x="160" y="40" width="480" height="320" as="geometry" />
        </mxCell>
        <mxCell id="jOUf7VoYPG0KSgHRsraD-3" value="" style="rounded=0;whiteSpace=wrap;html=1;sketch=0;" vertex="1" parent="jOUf7VoYPG0KSgHRsraD-1">
          <mxGeometry x="320" y="100" width="190" height="40" as="geometry" />
        </mxCell>
        <mxCell id="jOUf7VoYPG0KSgHRsraD-4" value="Email" style="text;html=1;strokeColor=none;fillColor=none;align=center;verticalAlign=middle;whiteSpace=wrap;rounded=0;sketch=0;" vertex="1" parent="jOUf7VoYPG0KSgHRsraD-1">
          <mxGeometry x="240" y="110" width="40" height="20" as="geometry" />
        </mxCell>
        <mxCell id="jOUf7VoYPG0KSgHRsraD-5" value="" style="rounded=0;whiteSpace=wrap;html=1;sketch=0;" vertex="1" parent="jOUf7VoYPG0KSgHRsraD-1">
          <mxGeometry x="320" y="180" width="190" height="40" as="geometry" />
        </mxCell>
        <mxCell id="jOUf7VoYPG0KSgHRsraD-6" value="Password" style="text;html=1;strokeColor=none;fillColor=none;align=center;verticalAlign=middle;whiteSpace=wrap;rounded=0;sketch=0;" vertex="1" parent="jOUf7VoYPG0KSgHRsraD-1">
          <mxGeometry x="240" y="190" width="50" height="20" as="geometry" />
        </mxCell>
        <mxCell id="jOUf7VoYPG0KSgHRsraD-7" value="登陆" style="rounded=0;whiteSpace=wrap;html=1;sketch=0;" vertex="1" parent="jOUf7VoYPG0KSgHRsraD-1">
          <mxGeometry x="355" y="250" width="120" height="30" as="geometry" />
        </mxCell>
        <mxCell id="jOUf7VoYPG0KSgHRsraD-10" value="忘记密码" style="text;html=1;strokeColor=none;fillColor=none;align=center;verticalAlign=middle;whiteSpace=wrap;rounded=0;sketch=0;" vertex="1" parent="jOUf7VoYPG0KSgHRsraD-1">
          <mxGeometry x="490" y="310" width="60" height="20" as="geometry" />
        </mxCell>
        <mxCell id="jOUf7VoYPG0KSgHRsraD-11" value="新用户注册" style="text;html=1;strokeColor=none;fillColor=none;align=center;verticalAlign=middle;whiteSpace=wrap;rounded=0;sketch=0;" vertex="1" parent="jOUf7VoYPG0KSgHRsraD-1">
          <mxGeometry x="400" y="310" width="75" height="20" as="geometry" />
        </mxCell>
        <mxCell id="jOUf7VoYPG0KSgHRsraD-12" value="" style="rounded=0;whiteSpace=wrap;html=1;sketch=0;" vertex="1" parent="jOUf7VoYPG0KSgHRsraD-1">
          <mxGeometry x="880" y="-20" width="960" height="580" as="geometry" />
        </mxCell>
        <mxCell id="jOUf7VoYPG0KSgHRsraD-15" value="" style="endArrow=none;html=1;entryX=0.171;entryY=1;entryDx=0;entryDy=0;entryPerimeter=0;" edge="1" parent="jOUf7VoYPG0KSgHRsraD-1" target="jOUf7VoYPG0KSgHRsraD-12">
          <mxGeometry width="50" height="50" relative="1" as="geometry">
            <mxPoint x="1044" y="-20" as="sourcePoint" />
            <mxPoint x="1044" y="450" as="targetPoint" />
          </mxGeometry>
        </mxCell>
        <mxCell id="jOUf7VoYPG0KSgHRsraD-17" value="联系人列表" style="text;html=1;strokeColor=none;fillColor=none;align=center;verticalAlign=middle;whiteSpace=wrap;rounded=0;sketch=0;" vertex="1" parent="jOUf7VoYPG0KSgHRsraD-1">
          <mxGeometry x="960" width="70" height="20" as="geometry" />
        </mxCell>
        <mxCell id="jOUf7VoYPG0KSgHRsraD-18" value="" style="endArrow=none;html=1;entryX=1.001;entryY=0.114;entryDx=0;entryDy=0;entryPerimeter=0;" edge="1" parent="jOUf7VoYPG0KSgHRsraD-1" target="jOUf7VoYPG0KSgHRsraD-12">
          <mxGeometry width="50" height="50" relative="1" as="geometry">
            <mxPoint x="1050" y="46" as="sourcePoint" />
            <mxPoint x="1120" y="40" as="targetPoint" />
          </mxGeometry>
        </mxCell>
        <mxCell id="jOUf7VoYPG0KSgHRsraD-19" value="" style="endArrow=none;html=1;entryX=0.999;entryY=0.84;entryDx=0;entryDy=0;entryPerimeter=0;" edge="1" parent="jOUf7VoYPG0KSgHRsraD-1" target="jOUf7VoYPG0KSgHRsraD-12">
          <mxGeometry width="50" height="50" relative="1" as="geometry">
            <mxPoint x="1050" y="470" as="sourcePoint" />
            <mxPoint x="1100" y="440" as="targetPoint" />
          </mxGeometry>
        </mxCell>
        <mxCell id="jOUf7VoYPG0KSgHRsraD-20" value="发送" style="rounded=1;whiteSpace=wrap;html=1;sketch=0;" vertex="1" parent="jOUf7VoYPG0KSgHRsraD-1">
          <mxGeometry x="1710" y="490" width="120" height="60" as="geometry" />
        </mxCell>
        <mxCell id="jOUf7VoYPG0KSgHRsraD-21" value="" style="shape=flexArrow;endArrow=classic;html=1;" edge="1" parent="jOUf7VoYPG0KSgHRsraD-1">
          <mxGeometry width="50" height="50" relative="1" as="geometry">
            <mxPoint x="670" y="200" as="sourcePoint" />
            <mxPoint x="860" y="200" as="targetPoint" />
          </mxGeometry>
        </mxCell>
        <mxCell id="jOUf7VoYPG0KSgHRsraD-22" value="" style="endArrow=none;html=1;entryX=0.058;entryY=0;entryDx=0;entryDy=0;entryPerimeter=0;exitX=0.06;exitY=1.009;exitDx=0;exitDy=0;exitPerimeter=0;" edge="1" parent="jOUf7VoYPG0KSgHRsraD-1" source="jOUf7VoYPG0KSgHRsraD-12" target="jOUf7VoYPG0KSgHRsraD-12">
          <mxGeometry width="50" height="50" relative="1" as="geometry">
            <mxPoint x="940" y="570" as="sourcePoint" />
            <mxPoint x="850" y="40" as="targetPoint" />
          </mxGeometry>
        </mxCell>
        <mxCell id="jOUf7VoYPG0KSgHRsraD-23" value="" style="endArrow=none;html=1;entryX=0.999;entryY=0.772;entryDx=0;entryDy=0;entryPerimeter=0;" edge="1" parent="jOUf7VoYPG0KSgHRsraD-1" target="jOUf7VoYPG0KSgHRsraD-12">
          <mxGeometry width="50" height="50" relative="1" as="geometry">
            <mxPoint x="1050" y="430" as="sourcePoint" />
            <mxPoint x="1060" y="580" as="targetPoint" />
          </mxGeometry>
        </mxCell>
        <mxCell id="jOUf7VoYPG0KSgHRsraD-24" value="Send content type" style="text;html=1;strokeColor=none;fillColor=none;align=center;verticalAlign=middle;whiteSpace=wrap;rounded=0;sketch=0;" vertex="1" parent="jOUf7VoYPG0KSgHRsraD-1">
          <mxGeometry x="1070" y="440" width="140" height="20" as="geometry" />
        </mxCell>
        <mxCell id="jOUf7VoYPG0KSgHRsraD-25" value="Menu" style="text;html=1;strokeColor=none;fillColor=none;align=center;verticalAlign=middle;whiteSpace=wrap;rounded=0;sketch=0;" vertex="1" parent="jOUf7VoYPG0KSgHRsraD-1">
          <mxGeometry x="890" y="500" width="40" height="20" as="geometry" />
        </mxCell>
        <mxCell id="jOUf7VoYPG0KSgHRsraD-26" value="Friend introduce" style="text;html=1;strokeColor=none;fillColor=none;align=center;verticalAlign=middle;whiteSpace=wrap;rounded=0;sketch=0;" vertex="1" parent="jOUf7VoYPG0KSgHRsraD-1">
          <mxGeometry x="1090" width="100" height="20" as="geometry" />
        </mxCell>
        <mxCell id="jOUf7VoYPG0KSgHRsraD-27" value="message" style="rounded=1;whiteSpace=wrap;html=1;sketch=0;" vertex="1" parent="jOUf7VoYPG0KSgHRsraD-1">
          <mxGeometry x="883" y="30" width="50" height="30" as="geometry" />
        </mxCell>
        <mxCell id="jOUf7VoYPG0KSgHRsraD-28" value="contact" style="rounded=1;whiteSpace=wrap;html=1;sketch=0;" vertex="1" parent="jOUf7VoYPG0KSgHRsraD-1">
          <mxGeometry x="888" y="80" width="40" height="30" as="geometry" />
        </mxCell>
        <mxCell id="jOUf7VoYPG0KSgHRsraD-29" value="Mine" style="rounded=1;whiteSpace=wrap;html=1;sketch=0;" vertex="1" parent="jOUf7VoYPG0KSgHRsraD-1">
          <mxGeometry x="883" y="-10" width="50" height="30" as="geometry" />
        </mxCell>
      </root>
    </mxGraphModel>
  </diagram>
</mxfile>
